<svg xmlns="http://www.w3.org/2000/svg" xmlns:xlink="http://www.w3.org/1999/xlink" width="1000" height="1000" viewBox="0 0 1000 1000">
  <defs>
    <style>
      .cls-1 {
        clip-path: url(#clip-Esther_Ogoniak_UI_Design_Logo);
      }

      .cls-2 {
        fill: #fff;
      }

      .cls-3 {
        filter: url(#Subtraction_2);
      }

      .cls-4 {
        filter: url(#Ellipse_2);
      }
    </style>
    <filter id="Ellipse_2" x="67.5" y="67.5" width="866" height="866" filterUnits="userSpaceOnUse">
      <feOffset input="SourceAlpha"/>
      <feGaussianBlur stdDeviation="0.5" result="blur"/>
      <feFlood flood-opacity="0.702"/>
      <feComposite operator="in" in2="blur"/>
      <feComposite in="SourceGraphic"/>
    </filter>
    <filter id="Subtraction_2">
      <feOffset input="SourceAlpha"/>
      <feGaussianBlur stdDeviation="0.5" result="blur-2"/>
      <feFlood result="color"/>
      <feComposite operator="out" in="SourceGraphic" in2="blur-2"/>
      <feComposite operator="in" in="color"/>
      <feComposite operator="in" in2="SourceGraphic"/>
    </filter>
    <clipPath id="clip-Esther_Ogoniak_UI_Design_Logo">
      <rect width="1000" height="1000"/>
    </clipPath>
  </defs>
  <g id="Esther_Ogoniak_UI_Design_Logo" data-name="Esther Ogoniak UI Design Logo" class="cls-1">
    <g id="Esther_Ogoniak_UI_Design_Logo-2" data-name="Esther Ogoniak UI Design Logo" transform="translate(55 59)">
      <g class="cls-4" transform="matrix(1, 0, 0, 1, -55, -59)">
        <circle id="Ellipse_2-2" data-name="Ellipse 2" cx="431.5" cy="431.5" r="431.5" transform="translate(69 69)"/>
      </g>
      <circle id="Ellipse_6" data-name="Ellipse 6" cx="386" cy="386" r="386" transform="translate(59 55)"/>
      <g data-type="innerShadowGroup">
        <path id="Subtraction_2-2" data-name="Subtraction 2" class="cls-2" d="M385.98,522.166C173.149,522.166,0,349.035,0,136.227A384.473,384.473,0,0,1,24.733,0C81.1,149.385,226.243,249.753,385.98,249.753,545.672,249.753,690.833,149.385,747.192,0a384.513,384.513,0,0,1,24.727,136.227C771.919,349.035,598.787,522.166,385.98,522.166Z" transform="translate(59.405 305.148)"/>
        <g class="cls-3" transform="matrix(1, 0, 0, 1, -55, -59)">
          <path id="Subtraction_2-3" data-name="Subtraction 2" class="cls-2" d="M385.98,522.166C173.149,522.166,0,349.035,0,136.227A384.473,384.473,0,0,1,24.733,0C81.1,149.385,226.243,249.753,385.98,249.753,545.672,249.753,690.833,149.385,747.192,0a384.513,384.513,0,0,1,24.727,136.227C771.919,349.035,598.787,522.166,385.98,522.166Z" transform="translate(114.4 364.15)"/>
        </g>
      </g>
    </g>
  </g>
</svg>
