<svg xmlns="http://www.w3.org/2000/svg" viewBox="0 0 32 32"><title>camera android app aplication phone</title><g id="camera_android_app_aplication_phone" data-name="camera android app aplication phone"><path d="M30.56,8.47a8,8,0,0,0-7-7,64.29,64.29,0,0,0-15.06,0,8,8,0,0,0-7,7,64.29,64.29,0,0,0,0,15.06,8,8,0,0,0,7,7,64.29,64.29,0,0,0,15.06,0,8,8,0,0,0,7-7A64.29,64.29,0,0,0,30.56,8.47ZM8.7,3.42a63.65,63.65,0,0,1,14.6,0A6,6,0,0,1,28.58,8.7,63,63,0,0,1,29,15h-5A8,8,0,0,0,8.07,15H3a63,63,0,0,1,.39-6.3A6,6,0,0,1,8.7,3.42ZM22,16a6,6,0,1,1-6-6A6,6,0,0,1,22,16Zm1.3,12.58a63.65,63.65,0,0,1-14.6,0A6,6,0,0,1,3.42,23.3,63,63,0,0,1,3,17h5a8,8,0,0,0,15.86,0h5a63,63,0,0,1-.39,6.3A6,6,0,0,1,23.3,28.58Z"/><path d="M16,12a4,4,0,1,0,4,4A4,4,0,0,0,16,12Zm0,6a2,2,0,1,1,2-2A2,2,0,0,1,16,18Z"/><circle cx="24" cy="8" r="1"/></g></svg>