<svg xmlns="http://www.w3.org/2000/svg" width="224.311" height="224.204" viewBox="0 0 224.311 224.204">
  <path id="phone_2" data-name="phone 2" d="M189.675,152.7a15.893,15.893,0,0,0-22.461,0c-19.813,19.76-19.495,20.5-23.309,19.495-45.559-12.449-73.688-40.526-86.138-86.138-1.112-4.238,2.49-6.039,8.741-12.5,10.6-10.6,15.416-13.721,15.416-22.038,0-9.271-4.662-11.231-34.593-41.162a15.893,15.893,0,0,0-22.514,0C11.255,23.967,1.031,31.489.13,48.441A173.971,173.971,0,0,0,174.1,229.881c24.422,0,27.335-6.516,45.506-24.686a15.893,15.893,0,0,0,0-22.514Z" transform="translate(0.03 -5.678)"/>
</svg>
