<svg xmlns="http://www.w3.org/2000/svg" width="203" height="152" viewBox="0 0 203 152">
  <path id="mail_3" data-name="mail 3" d="M9-1480H-170a11.921,11.921,0,0,1-8.485-3.515A11.923,11.923,0,0,1-182-1492v-128c0-.1,0-.2,0-.3a67.1,67.1,0,0,0,4.295,22.812,83.055,83.055,0,0,0,11.331,20.435c8.3,11.144,19.866,21.768,34.385,31.576,5.707,3.855,11.886,7.59,18.365,11.1,5.181,2.809,10.571,5.485,16.02,7.953,9.279,4.2,15.568,6.364,15.629,6.385.058-.018,6.508-2.1,16.09-6.232,5.614-2.422,11.162-5.054,16.491-7.821,6.666-3.46,13.026-7.155,18.9-10.982,14.946-9.729,26.855-20.336,35.4-31.524a82.476,82.476,0,0,0,11.665-20.582A66.823,66.823,0,0,0,21-1620.274c0,.044,0,.089,0,.133s0,.094,0,.141v128a11.923,11.923,0,0,1-3.514,8.486A11.921,11.921,0,0,1,9-1480Zm-90.969-54.039h0l-.005,0c-.6-.208-6.1-2.131-14.231-5.757a244.117,244.117,0,0,1-32-17.19c-21.395-13.768-47.947-36.647-52.946-67.453a11.989,11.989,0,0,1,4.341-5.441A11.932,11.932,0,0,1-170-1632H9a11.931,11.931,0,0,1,6.812,2.119,11.988,11.988,0,0,1,4.34,5.442c-5.078,31.274-32.424,54.13-54.47,67.8a247.282,247.282,0,0,1-32.977,16.974c-8.429,3.576-14.054,5.428-14.667,5.627l-.007,0Z" transform="translate(182 1632)"/>
</svg>
